<svg width="50" height="50" viewBox="0 0 50 50" fill="none" xmlns="http://www.w3.org/2000/svg">
<path d="M10.2062 19.4665L10.8837 14H39.1163L39.7938 19.4665C40.1747 22.5401 40.4519 24.7835 40.5216 26.5568C40.591 28.3203 40.4487 29.5187 40.052 30.5205C39.2783 32.4742 37.8455 34.0956 36.0017 35.1036C35.0564 35.6205 33.8846 35.9091 32.126 36.0572C30.3575 36.2061 28.097 36.2069 25 36.2069C21.903 36.2069 19.6425 36.2061 17.874 36.0572C16.1154 35.9091 14.9436 35.6205 13.9983 35.1036C12.1545 34.0956 10.7217 32.4742 9.94801 30.5205C9.55131 29.5187 9.40901 28.3203 9.47838 26.5568C9.54814 24.7835 9.82534 22.5401 10.2062 19.4665Z" stroke="white" stroke-width="2"/>
<path d="M19 14.069H31C31.5523 14.069 32 14.5167 32 15.069C32 18.3827 29.3137 21.069 26 21.069H24C20.6863 21.069 18 18.3827 18 15.069C18 14.5167 18.4477 14.069 19 14.069Z" stroke="white" stroke-width="2"/>
</svg>
