<svg width="50" height="50" viewBox="0 0 50 50" fill="none" xmlns="http://www.w3.org/2000/svg">
<g clip-path="url(#clip0_216_12)">
<path d="M25.25 21V36" stroke="white" stroke-width="2.5"/>
<path d="M25.25 16.5V19" stroke="white" stroke-width="2.5"/>
<path d="M31.5622 13.5L41.5215 30.75C42.6681 32.736 43.4926 34.1661 44.016 35.301C44.5415 36.4406 44.6896 37.1342 44.6335 37.6681C44.515 38.7955 43.9237 39.8197 43.0066 40.4861C42.5723 40.8016 41.8975 41.0202 40.6478 41.1348C39.4032 41.249 37.7526 41.25 35.4593 41.25H15.5407C13.2474 41.25 11.5968 41.249 10.3522 41.1348C9.10247 41.0202 8.42771 40.8016 7.99341 40.4861C7.07628 39.8197 6.48497 38.7955 6.36647 37.6681C6.31036 37.1342 6.45846 36.4406 6.98403 35.301C7.50743 34.1661 8.33188 32.7361 9.47853 30.75L19.4378 13.5C20.5845 11.514 21.4107 10.0849 22.1318 9.06423C22.856 8.03924 23.3826 7.56416 23.8731 7.34582C24.9087 6.88473 26.0913 6.88473 27.1269 7.34582C27.6174 7.56416 28.144 8.03924 28.8682 9.06422C29.5893 10.0849 30.4155 11.5139 31.5622 13.5Z" stroke="white" stroke-width="2"/>
</g>
<defs>
<clipPath id="clip0_216_12">
<rect width="50" height="50" fill="white"/>
</clipPath>
</defs>
</svg>
